<mxfile host="app.diagrams.net" agent="Mozilla/5.0 (Windows NT 10.0; Win64; x64) AppleWebKit/537.36 (KHTML, like Gecko) Chrome/130.0.0.0 Safari/537.36" version="24.8.4">
  <diagram name="Page-1" id="r00lo-nKbQJynf3VnX-Y">
    <mxGraphModel dx="2058" dy="921" grid="1" gridSize="10" guides="1" tooltips="1" connect="1" arrows="1" fold="1" page="1" pageScale="1" pageWidth="850" pageHeight="1100" math="0" shadow="0">
      <root>
        <mxCell id="0" />
        <mxCell id="1" parent="0" />
        <mxCell id="cN28s722jj5KMZS00LDS-2" value="Category" style="swimlane;fontStyle=1;align=center;verticalAlign=top;childLayout=stackLayout;horizontal=1;startSize=26;horizontalStack=0;resizeParent=1;resizeParentMax=0;resizeLast=0;collapsible=0;marginBottom=0;" vertex="1" parent="1">
          <mxGeometry x="436" y="32" width="224" height="143" as="geometry" />
        </mxCell>
        <mxCell id="cN28s722jj5KMZS00LDS-3" value="+int CategoryID" style="text;strokeColor=none;fillColor=none;align=left;verticalAlign=top;spacingLeft=4;spacingRight=4;overflow=hidden;rotatable=0;points=[[0,0.5],[1,0.5]];portConstraint=eastwest;" vertex="1" parent="cN28s722jj5KMZS00LDS-2">
          <mxGeometry y="26" width="224" height="26" as="geometry" />
        </mxCell>
        <mxCell id="cN28s722jj5KMZS00LDS-4" value="+String CategoryName" style="text;strokeColor=none;fillColor=none;align=left;verticalAlign=top;spacingLeft=4;spacingRight=4;overflow=hidden;rotatable=0;points=[[0,0.5],[1,0.5]];portConstraint=eastwest;" vertex="1" parent="cN28s722jj5KMZS00LDS-2">
          <mxGeometry y="52" width="224" height="26" as="geometry" />
        </mxCell>
        <mxCell id="cN28s722jj5KMZS00LDS-5" value="+String Description" style="text;strokeColor=none;fillColor=none;align=left;verticalAlign=top;spacingLeft=4;spacingRight=4;overflow=hidden;rotatable=0;points=[[0,0.5],[1,0.5]];portConstraint=eastwest;" vertex="1" parent="cN28s722jj5KMZS00LDS-2">
          <mxGeometry y="78" width="224" height="26" as="geometry" />
        </mxCell>
        <mxCell id="cN28s722jj5KMZS00LDS-6" value="Note right of CategoryID : PK" style="text;strokeColor=none;fillColor=none;align=left;verticalAlign=top;spacingLeft=4;spacingRight=4;overflow=hidden;rotatable=0;points=[[0,0.5],[1,0.5]];portConstraint=eastwest;" vertex="1" parent="cN28s722jj5KMZS00LDS-2">
          <mxGeometry y="104" width="224" height="26" as="geometry" />
        </mxCell>
        <mxCell id="cN28s722jj5KMZS00LDS-7" style="line;strokeWidth=1;fillColor=none;align=left;verticalAlign=middle;spacingTop=-1;spacingLeft=3;spacingRight=3;rotatable=0;labelPosition=right;points=[];portConstraint=eastwest;strokeColor=inherit;" vertex="1" parent="cN28s722jj5KMZS00LDS-2">
          <mxGeometry y="130" width="224" height="13" as="geometry" />
        </mxCell>
        <mxCell id="cN28s722jj5KMZS00LDS-8" value="Product" style="swimlane;fontStyle=1;align=center;verticalAlign=top;childLayout=stackLayout;horizontal=1;startSize=24.262068123653016;horizontalStack=0;resizeParent=1;resizeParentMax=0;resizeLast=0;collapsible=0;marginBottom=0;" vertex="1" parent="1">
          <mxGeometry x="540" y="263" width="215" height="348.262068123653" as="geometry" />
        </mxCell>
        <mxCell id="cN28s722jj5KMZS00LDS-9" value="+int ProductID" style="text;strokeColor=none;fillColor=none;align=left;verticalAlign=top;spacingLeft=4;spacingRight=4;overflow=hidden;rotatable=0;points=[[0,0.5],[1,0.5]];portConstraint=eastwest;" vertex="1" parent="cN28s722jj5KMZS00LDS-8">
          <mxGeometry y="24.262068123653016" width="215" height="24" as="geometry" />
        </mxCell>
        <mxCell id="cN28s722jj5KMZS00LDS-10" value="+String ProductName" style="text;strokeColor=none;fillColor=none;align=left;verticalAlign=top;spacingLeft=4;spacingRight=4;overflow=hidden;rotatable=0;points=[[0,0.5],[1,0.5]];portConstraint=eastwest;" vertex="1" parent="cN28s722jj5KMZS00LDS-8">
          <mxGeometry y="48.262068123653016" width="215" height="24" as="geometry" />
        </mxCell>
        <mxCell id="cN28s722jj5KMZS00LDS-11" value="+String ProductDescription" style="text;strokeColor=none;fillColor=none;align=left;verticalAlign=top;spacingLeft=4;spacingRight=4;overflow=hidden;rotatable=0;points=[[0,0.5],[1,0.5]];portConstraint=eastwest;" vertex="1" parent="cN28s722jj5KMZS00LDS-8">
          <mxGeometry y="72.26206812365302" width="215" height="24" as="geometry" />
        </mxCell>
        <mxCell id="cN28s722jj5KMZS00LDS-12" value="+String Picture" style="text;strokeColor=none;fillColor=none;align=left;verticalAlign=top;spacingLeft=4;spacingRight=4;overflow=hidden;rotatable=0;points=[[0,0.5],[1,0.5]];portConstraint=eastwest;" vertex="1" parent="cN28s722jj5KMZS00LDS-8">
          <mxGeometry y="96.26206812365302" width="215" height="24" as="geometry" />
        </mxCell>
        <mxCell id="cN28s722jj5KMZS00LDS-13" value="+String Color" style="text;strokeColor=none;fillColor=none;align=left;verticalAlign=top;spacingLeft=4;spacingRight=4;overflow=hidden;rotatable=0;points=[[0,0.5],[1,0.5]];portConstraint=eastwest;" vertex="1" parent="cN28s722jj5KMZS00LDS-8">
          <mxGeometry y="120.26206812365302" width="215" height="24" as="geometry" />
        </mxCell>
        <mxCell id="cN28s722jj5KMZS00LDS-14" value="+String Material" style="text;strokeColor=none;fillColor=none;align=left;verticalAlign=top;spacingLeft=4;spacingRight=4;overflow=hidden;rotatable=0;points=[[0,0.5],[1,0.5]];portConstraint=eastwest;" vertex="1" parent="cN28s722jj5KMZS00LDS-8">
          <mxGeometry y="144.26206812365302" width="215" height="24" as="geometry" />
        </mxCell>
        <mxCell id="cN28s722jj5KMZS00LDS-15" value="+String Size" style="text;strokeColor=none;fillColor=none;align=left;verticalAlign=top;spacingLeft=4;spacingRight=4;overflow=hidden;rotatable=0;points=[[0,0.5],[1,0.5]];portConstraint=eastwest;" vertex="1" parent="cN28s722jj5KMZS00LDS-8">
          <mxGeometry y="168.26206812365302" width="215" height="24" as="geometry" />
        </mxCell>
        <mxCell id="cN28s722jj5KMZS00LDS-16" value="+Date DateAdded" style="text;strokeColor=none;fillColor=none;align=left;verticalAlign=top;spacingLeft=4;spacingRight=4;overflow=hidden;rotatable=0;points=[[0,0.5],[1,0.5]];portConstraint=eastwest;" vertex="1" parent="cN28s722jj5KMZS00LDS-8">
          <mxGeometry y="192.26206812365302" width="215" height="24" as="geometry" />
        </mxCell>
        <mxCell id="cN28s722jj5KMZS00LDS-17" value="+Boolean AvailabilityStatus" style="text;strokeColor=none;fillColor=none;align=left;verticalAlign=top;spacingLeft=4;spacingRight=4;overflow=hidden;rotatable=0;points=[[0,0.5],[1,0.5]];portConstraint=eastwest;" vertex="1" parent="cN28s722jj5KMZS00LDS-8">
          <mxGeometry y="216.26206812365302" width="215" height="24" as="geometry" />
        </mxCell>
        <mxCell id="cN28s722jj5KMZS00LDS-18" value="+int WishlistCount" style="text;strokeColor=none;fillColor=none;align=left;verticalAlign=top;spacingLeft=4;spacingRight=4;overflow=hidden;rotatable=0;points=[[0,0.5],[1,0.5]];portConstraint=eastwest;" vertex="1" parent="cN28s722jj5KMZS00LDS-8">
          <mxGeometry y="240.26206812365302" width="215" height="24" as="geometry" />
        </mxCell>
        <mxCell id="cN28s722jj5KMZS00LDS-19" value="+float FinalRating" style="text;strokeColor=none;fillColor=none;align=left;verticalAlign=top;spacingLeft=4;spacingRight=4;overflow=hidden;rotatable=0;points=[[0,0.5],[1,0.5]];portConstraint=eastwest;" vertex="1" parent="cN28s722jj5KMZS00LDS-8">
          <mxGeometry y="264.262068123653" width="215" height="24" as="geometry" />
        </mxCell>
        <mxCell id="cN28s722jj5KMZS00LDS-20" value="+int NumberOfReviews" style="text;strokeColor=none;fillColor=none;align=left;verticalAlign=top;spacingLeft=4;spacingRight=4;overflow=hidden;rotatable=0;points=[[0,0.5],[1,0.5]];portConstraint=eastwest;" vertex="1" parent="cN28s722jj5KMZS00LDS-8">
          <mxGeometry y="288.262068123653" width="215" height="24" as="geometry" />
        </mxCell>
        <mxCell id="cN28s722jj5KMZS00LDS-21" value="Note right of ProductID : PK" style="text;strokeColor=none;fillColor=none;align=left;verticalAlign=top;spacingLeft=4;spacingRight=4;overflow=hidden;rotatable=0;points=[[0,0.5],[1,0.5]];portConstraint=eastwest;" vertex="1" parent="cN28s722jj5KMZS00LDS-8">
          <mxGeometry y="312.262068123653" width="215" height="24" as="geometry" />
        </mxCell>
        <mxCell id="cN28s722jj5KMZS00LDS-22" style="line;strokeWidth=1;fillColor=none;align=left;verticalAlign=middle;spacingTop=-1;spacingLeft=3;spacingRight=3;rotatable=0;labelPosition=right;points=[];portConstraint=eastwest;strokeColor=inherit;" vertex="1" parent="cN28s722jj5KMZS00LDS-8">
          <mxGeometry y="336.262068123653" width="215" height="12" as="geometry" />
        </mxCell>
        <mxCell id="cN28s722jj5KMZS00LDS-23" value="Inventory" style="swimlane;fontStyle=1;align=center;verticalAlign=top;childLayout=stackLayout;horizontal=1;startSize=25.56923029972957;horizontalStack=0;resizeParent=1;resizeParentMax=0;resizeLast=0;collapsible=0;marginBottom=0;" vertex="1" parent="1">
          <mxGeometry x="20" y="774" width="228" height="168.56923029972955" as="geometry" />
        </mxCell>
        <mxCell id="cN28s722jj5KMZS00LDS-24" value="+int InventoryID" style="text;strokeColor=none;fillColor=none;align=left;verticalAlign=top;spacingLeft=4;spacingRight=4;overflow=hidden;rotatable=0;points=[[0,0.5],[1,0.5]];portConstraint=eastwest;" vertex="1" parent="cN28s722jj5KMZS00LDS-23">
          <mxGeometry y="25.56923029972957" width="228" height="26" as="geometry" />
        </mxCell>
        <mxCell id="cN28s722jj5KMZS00LDS-25" value="+int ProductID" style="text;strokeColor=none;fillColor=none;align=left;verticalAlign=top;spacingLeft=4;spacingRight=4;overflow=hidden;rotatable=0;points=[[0,0.5],[1,0.5]];portConstraint=eastwest;" vertex="1" parent="cN28s722jj5KMZS00LDS-23">
          <mxGeometry y="51.56923029972957" width="228" height="26" as="geometry" />
        </mxCell>
        <mxCell id="cN28s722jj5KMZS00LDS-26" value="+float UnitPrice" style="text;strokeColor=none;fillColor=none;align=left;verticalAlign=top;spacingLeft=4;spacingRight=4;overflow=hidden;rotatable=0;points=[[0,0.5],[1,0.5]];portConstraint=eastwest;" vertex="1" parent="cN28s722jj5KMZS00LDS-23">
          <mxGeometry y="77.56923029972957" width="228" height="26" as="geometry" />
        </mxCell>
        <mxCell id="cN28s722jj5KMZS00LDS-27" value="+int UnitsInStock" style="text;strokeColor=none;fillColor=none;align=left;verticalAlign=top;spacingLeft=4;spacingRight=4;overflow=hidden;rotatable=0;points=[[0,0.5],[1,0.5]];portConstraint=eastwest;" vertex="1" parent="cN28s722jj5KMZS00LDS-23">
          <mxGeometry y="103.56923029972957" width="228" height="26" as="geometry" />
        </mxCell>
        <mxCell id="cN28s722jj5KMZS00LDS-28" value="Note right of InventoryID : PK" style="text;strokeColor=none;fillColor=none;align=left;verticalAlign=top;spacingLeft=4;spacingRight=4;overflow=hidden;rotatable=0;points=[[0,0.5],[1,0.5]];portConstraint=eastwest;" vertex="1" parent="cN28s722jj5KMZS00LDS-23">
          <mxGeometry y="129.56923029972955" width="228" height="26" as="geometry" />
        </mxCell>
        <mxCell id="cN28s722jj5KMZS00LDS-29" style="line;strokeWidth=1;fillColor=none;align=left;verticalAlign=middle;spacingTop=-1;spacingLeft=3;spacingRight=3;rotatable=0;labelPosition=right;points=[];portConstraint=eastwest;strokeColor=inherit;" vertex="1" parent="cN28s722jj5KMZS00LDS-23">
          <mxGeometry y="155.56923029972955" width="228" height="13" as="geometry" />
        </mxCell>
        <mxCell id="cN28s722jj5KMZS00LDS-30" value="Employee" style="swimlane;fontStyle=1;align=center;verticalAlign=top;childLayout=stackLayout;horizontal=1;startSize=24.53912884256114;horizontalStack=0;resizeParent=1;resizeParentMax=0;resizeLast=0;collapsible=0;marginBottom=0;" vertex="1" parent="1">
          <mxGeometry x="848" y="298" width="229" height="286.5391288425611" as="geometry" />
        </mxCell>
        <mxCell id="cN28s722jj5KMZS00LDS-31" value="+int EmployeeID" style="text;strokeColor=none;fillColor=none;align=left;verticalAlign=top;spacingLeft=4;spacingRight=4;overflow=hidden;rotatable=0;points=[[0,0.5],[1,0.5]];portConstraint=eastwest;" vertex="1" parent="cN28s722jj5KMZS00LDS-30">
          <mxGeometry y="24.53912884256114" width="229" height="25" as="geometry" />
        </mxCell>
        <mxCell id="cN28s722jj5KMZS00LDS-32" value="+String Name" style="text;strokeColor=none;fillColor=none;align=left;verticalAlign=top;spacingLeft=4;spacingRight=4;overflow=hidden;rotatable=0;points=[[0,0.5],[1,0.5]];portConstraint=eastwest;" vertex="1" parent="cN28s722jj5KMZS00LDS-30">
          <mxGeometry y="49.53912884256114" width="229" height="25" as="geometry" />
        </mxCell>
        <mxCell id="cN28s722jj5KMZS00LDS-33" value="+int Age" style="text;strokeColor=none;fillColor=none;align=left;verticalAlign=top;spacingLeft=4;spacingRight=4;overflow=hidden;rotatable=0;points=[[0,0.5],[1,0.5]];portConstraint=eastwest;" vertex="1" parent="cN28s722jj5KMZS00LDS-30">
          <mxGeometry y="74.53912884256114" width="229" height="25" as="geometry" />
        </mxCell>
        <mxCell id="cN28s722jj5KMZS00LDS-34" value="+String Gmail" style="text;strokeColor=none;fillColor=none;align=left;verticalAlign=top;spacingLeft=4;spacingRight=4;overflow=hidden;rotatable=0;points=[[0,0.5],[1,0.5]];portConstraint=eastwest;" vertex="1" parent="cN28s722jj5KMZS00LDS-30">
          <mxGeometry y="99.53912884256114" width="229" height="25" as="geometry" />
        </mxCell>
        <mxCell id="cN28s722jj5KMZS00LDS-35" value="+String Phone_No" style="text;strokeColor=none;fillColor=none;align=left;verticalAlign=top;spacingLeft=4;spacingRight=4;overflow=hidden;rotatable=0;points=[[0,0.5],[1,0.5]];portConstraint=eastwest;" vertex="1" parent="cN28s722jj5KMZS00LDS-30">
          <mxGeometry y="124.53912884256114" width="229" height="25" as="geometry" />
        </mxCell>
        <mxCell id="cN28s722jj5KMZS00LDS-36" value="+String Address" style="text;strokeColor=none;fillColor=none;align=left;verticalAlign=top;spacingLeft=4;spacingRight=4;overflow=hidden;rotatable=0;points=[[0,0.5],[1,0.5]];portConstraint=eastwest;" vertex="1" parent="cN28s722jj5KMZS00LDS-30">
          <mxGeometry y="149.53912884256113" width="229" height="25" as="geometry" />
        </mxCell>
        <mxCell id="cN28s722jj5KMZS00LDS-37" value="+String Role" style="text;strokeColor=none;fillColor=none;align=left;verticalAlign=top;spacingLeft=4;spacingRight=4;overflow=hidden;rotatable=0;points=[[0,0.5],[1,0.5]];portConstraint=eastwest;" vertex="1" parent="cN28s722jj5KMZS00LDS-30">
          <mxGeometry y="174.53912884256113" width="229" height="25" as="geometry" />
        </mxCell>
        <mxCell id="cN28s722jj5KMZS00LDS-38" value="+String Password" style="text;strokeColor=none;fillColor=none;align=left;verticalAlign=top;spacingLeft=4;spacingRight=4;overflow=hidden;rotatable=0;points=[[0,0.5],[1,0.5]];portConstraint=eastwest;" vertex="1" parent="cN28s722jj5KMZS00LDS-30">
          <mxGeometry y="199.53912884256113" width="229" height="25" as="geometry" />
        </mxCell>
        <mxCell id="cN28s722jj5KMZS00LDS-39" value="+Date EnterDate" style="text;strokeColor=none;fillColor=none;align=left;verticalAlign=top;spacingLeft=4;spacingRight=4;overflow=hidden;rotatable=0;points=[[0,0.5],[1,0.5]];portConstraint=eastwest;" vertex="1" parent="cN28s722jj5KMZS00LDS-30">
          <mxGeometry y="224.53912884256113" width="229" height="25" as="geometry" />
        </mxCell>
        <mxCell id="cN28s722jj5KMZS00LDS-40" value="Note right of EmployeeID : PK" style="text;strokeColor=none;fillColor=none;align=left;verticalAlign=top;spacingLeft=4;spacingRight=4;overflow=hidden;rotatable=0;points=[[0,0.5],[1,0.5]];portConstraint=eastwest;" vertex="1" parent="cN28s722jj5KMZS00LDS-30">
          <mxGeometry y="249.53912884256113" width="229" height="25" as="geometry" />
        </mxCell>
        <mxCell id="cN28s722jj5KMZS00LDS-41" style="line;strokeWidth=1;fillColor=none;align=left;verticalAlign=middle;spacingTop=-1;spacingLeft=3;spacingRight=3;rotatable=0;labelPosition=right;points=[];portConstraint=eastwest;strokeColor=inherit;" vertex="1" parent="cN28s722jj5KMZS00LDS-30">
          <mxGeometry y="274.5391288425611" width="229" height="12" as="geometry" />
        </mxCell>
        <mxCell id="cN28s722jj5KMZS00LDS-42" value="Admin" style="swimlane;fontStyle=1;align=center;verticalAlign=top;childLayout=stackLayout;horizontal=1;startSize=25.56923029972957;horizontalStack=0;resizeParent=1;resizeParentMax=0;resizeLast=0;collapsible=0;marginBottom=0;" vertex="1" parent="1">
          <mxGeometry x="883" y="20" width="160" height="168.56923029972955" as="geometry" />
        </mxCell>
        <mxCell id="cN28s722jj5KMZS00LDS-43" value="+int ID" style="text;strokeColor=none;fillColor=none;align=left;verticalAlign=top;spacingLeft=4;spacingRight=4;overflow=hidden;rotatable=0;points=[[0,0.5],[1,0.5]];portConstraint=eastwest;" vertex="1" parent="cN28s722jj5KMZS00LDS-42">
          <mxGeometry y="25.56923029972957" width="160" height="26" as="geometry" />
        </mxCell>
        <mxCell id="cN28s722jj5KMZS00LDS-44" value="+String Name" style="text;strokeColor=none;fillColor=none;align=left;verticalAlign=top;spacingLeft=4;spacingRight=4;overflow=hidden;rotatable=0;points=[[0,0.5],[1,0.5]];portConstraint=eastwest;" vertex="1" parent="cN28s722jj5KMZS00LDS-42">
          <mxGeometry y="51.56923029972957" width="160" height="26" as="geometry" />
        </mxCell>
        <mxCell id="cN28s722jj5KMZS00LDS-45" value="+String Gmail" style="text;strokeColor=none;fillColor=none;align=left;verticalAlign=top;spacingLeft=4;spacingRight=4;overflow=hidden;rotatable=0;points=[[0,0.5],[1,0.5]];portConstraint=eastwest;" vertex="1" parent="cN28s722jj5KMZS00LDS-42">
          <mxGeometry y="77.56923029972957" width="160" height="26" as="geometry" />
        </mxCell>
        <mxCell id="cN28s722jj5KMZS00LDS-46" value="+String Password" style="text;strokeColor=none;fillColor=none;align=left;verticalAlign=top;spacingLeft=4;spacingRight=4;overflow=hidden;rotatable=0;points=[[0,0.5],[1,0.5]];portConstraint=eastwest;" vertex="1" parent="cN28s722jj5KMZS00LDS-42">
          <mxGeometry y="103.56923029972957" width="160" height="26" as="geometry" />
        </mxCell>
        <mxCell id="cN28s722jj5KMZS00LDS-47" value="Note right of ID : PK" style="text;strokeColor=none;fillColor=none;align=left;verticalAlign=top;spacingLeft=4;spacingRight=4;overflow=hidden;rotatable=0;points=[[0,0.5],[1,0.5]];portConstraint=eastwest;" vertex="1" parent="cN28s722jj5KMZS00LDS-42">
          <mxGeometry y="129.56923029972955" width="160" height="26" as="geometry" />
        </mxCell>
        <mxCell id="cN28s722jj5KMZS00LDS-48" style="line;strokeWidth=1;fillColor=none;align=left;verticalAlign=middle;spacingTop=-1;spacingLeft=3;spacingRight=3;rotatable=0;labelPosition=right;points=[];portConstraint=eastwest;strokeColor=inherit;" vertex="1" parent="cN28s722jj5KMZS00LDS-42">
          <mxGeometry y="155.56923029972955" width="160" height="13" as="geometry" />
        </mxCell>
        <mxCell id="cN28s722jj5KMZS00LDS-49" value="Expenses" style="swimlane;fontStyle=1;align=center;verticalAlign=top;childLayout=stackLayout;horizontal=1;startSize=25.56923029972957;horizontalStack=0;resizeParent=1;resizeParentMax=0;resizeLast=0;collapsible=0;marginBottom=0;" vertex="1" parent="1">
          <mxGeometry x="575" y="774" width="233" height="168.56923029972955" as="geometry" />
        </mxCell>
        <mxCell id="cN28s722jj5KMZS00LDS-50" value="+int Expenses_ID" style="text;strokeColor=none;fillColor=none;align=left;verticalAlign=top;spacingLeft=4;spacingRight=4;overflow=hidden;rotatable=0;points=[[0,0.5],[1,0.5]];portConstraint=eastwest;" vertex="1" parent="cN28s722jj5KMZS00LDS-49">
          <mxGeometry y="25.56923029972957" width="233" height="26" as="geometry" />
        </mxCell>
        <mxCell id="cN28s722jj5KMZS00LDS-51" value="+String ExpensesName" style="text;strokeColor=none;fillColor=none;align=left;verticalAlign=top;spacingLeft=4;spacingRight=4;overflow=hidden;rotatable=0;points=[[0,0.5],[1,0.5]];portConstraint=eastwest;" vertex="1" parent="cN28s722jj5KMZS00LDS-49">
          <mxGeometry y="51.56923029972957" width="233" height="26" as="geometry" />
        </mxCell>
        <mxCell id="cN28s722jj5KMZS00LDS-52" value="+float Cost" style="text;strokeColor=none;fillColor=none;align=left;verticalAlign=top;spacingLeft=4;spacingRight=4;overflow=hidden;rotatable=0;points=[[0,0.5],[1,0.5]];portConstraint=eastwest;" vertex="1" parent="cN28s722jj5KMZS00LDS-49">
          <mxGeometry y="77.56923029972957" width="233" height="26" as="geometry" />
        </mxCell>
        <mxCell id="cN28s722jj5KMZS00LDS-53" value="+String Description" style="text;strokeColor=none;fillColor=none;align=left;verticalAlign=top;spacingLeft=4;spacingRight=4;overflow=hidden;rotatable=0;points=[[0,0.5],[1,0.5]];portConstraint=eastwest;" vertex="1" parent="cN28s722jj5KMZS00LDS-49">
          <mxGeometry y="103.56923029972957" width="233" height="26" as="geometry" />
        </mxCell>
        <mxCell id="cN28s722jj5KMZS00LDS-54" value="Note right of Expenses_ID : PK" style="text;strokeColor=none;fillColor=none;align=left;verticalAlign=top;spacingLeft=4;spacingRight=4;overflow=hidden;rotatable=0;points=[[0,0.5],[1,0.5]];portConstraint=eastwest;" vertex="1" parent="cN28s722jj5KMZS00LDS-49">
          <mxGeometry y="129.56923029972955" width="233" height="26" as="geometry" />
        </mxCell>
        <mxCell id="cN28s722jj5KMZS00LDS-55" style="line;strokeWidth=1;fillColor=none;align=left;verticalAlign=middle;spacingTop=-1;spacingLeft=3;spacingRight=3;rotatable=0;labelPosition=right;points=[];portConstraint=eastwest;strokeColor=inherit;" vertex="1" parent="cN28s722jj5KMZS00LDS-49">
          <mxGeometry y="155.56923029972955" width="233" height="13" as="geometry" />
        </mxCell>
        <mxCell id="cN28s722jj5KMZS00LDS-56" value="Order" style="swimlane;fontStyle=1;align=center;verticalAlign=top;childLayout=stackLayout;horizontal=1;startSize=24.340738932291668;horizontalStack=0;resizeParent=1;resizeParentMax=0;resizeLast=0;collapsible=0;marginBottom=0;" vertex="1" parent="1">
          <mxGeometry x="1858" y="692" width="209" height="324.3407389322917" as="geometry" />
        </mxCell>
        <mxCell id="cN28s722jj5KMZS00LDS-57" value="+int Order_ID" style="text;strokeColor=none;fillColor=none;align=left;verticalAlign=top;spacingLeft=4;spacingRight=4;overflow=hidden;rotatable=0;points=[[0,0.5],[1,0.5]];portConstraint=eastwest;" vertex="1" parent="cN28s722jj5KMZS00LDS-56">
          <mxGeometry y="24.340738932291668" width="209" height="24" as="geometry" />
        </mxCell>
        <mxCell id="cN28s722jj5KMZS00LDS-58" value="+Date ShoppedDate" style="text;strokeColor=none;fillColor=none;align=left;verticalAlign=top;spacingLeft=4;spacingRight=4;overflow=hidden;rotatable=0;points=[[0,0.5],[1,0.5]];portConstraint=eastwest;" vertex="1" parent="cN28s722jj5KMZS00LDS-56">
          <mxGeometry y="48.34073893229167" width="209" height="24" as="geometry" />
        </mxCell>
        <mxCell id="cN28s722jj5KMZS00LDS-59" value="+Time ShoppedTime" style="text;strokeColor=none;fillColor=none;align=left;verticalAlign=top;spacingLeft=4;spacingRight=4;overflow=hidden;rotatable=0;points=[[0,0.5],[1,0.5]];portConstraint=eastwest;" vertex="1" parent="cN28s722jj5KMZS00LDS-56">
          <mxGeometry y="72.34073893229167" width="209" height="24" as="geometry" />
        </mxCell>
        <mxCell id="cN28s722jj5KMZS00LDS-60" value="+String OrderStatus" style="text;strokeColor=none;fillColor=none;align=left;verticalAlign=top;spacingLeft=4;spacingRight=4;overflow=hidden;rotatable=0;points=[[0,0.5],[1,0.5]];portConstraint=eastwest;" vertex="1" parent="cN28s722jj5KMZS00LDS-56">
          <mxGeometry y="96.34073893229167" width="209" height="24" as="geometry" />
        </mxCell>
        <mxCell id="cN28s722jj5KMZS00LDS-61" value="+float Discount" style="text;strokeColor=none;fillColor=none;align=left;verticalAlign=top;spacingLeft=4;spacingRight=4;overflow=hidden;rotatable=0;points=[[0,0.5],[1,0.5]];portConstraint=eastwest;" vertex="1" parent="cN28s722jj5KMZS00LDS-56">
          <mxGeometry y="120.34073893229167" width="209" height="24" as="geometry" />
        </mxCell>
        <mxCell id="cN28s722jj5KMZS00LDS-62" value="+String PaymentStatus" style="text;strokeColor=none;fillColor=none;align=left;verticalAlign=top;spacingLeft=4;spacingRight=4;overflow=hidden;rotatable=0;points=[[0,0.5],[1,0.5]];portConstraint=eastwest;" vertex="1" parent="cN28s722jj5KMZS00LDS-56">
          <mxGeometry y="144.34073893229169" width="209" height="24" as="geometry" />
        </mxCell>
        <mxCell id="cN28s722jj5KMZS00LDS-63" value="+Date DeliveryDate" style="text;strokeColor=none;fillColor=none;align=left;verticalAlign=top;spacingLeft=4;spacingRight=4;overflow=hidden;rotatable=0;points=[[0,0.5],[1,0.5]];portConstraint=eastwest;" vertex="1" parent="cN28s722jj5KMZS00LDS-56">
          <mxGeometry y="168.34073893229169" width="209" height="24" as="geometry" />
        </mxCell>
        <mxCell id="cN28s722jj5KMZS00LDS-64" value="+String DeliveryVia" style="text;strokeColor=none;fillColor=none;align=left;verticalAlign=top;spacingLeft=4;spacingRight=4;overflow=hidden;rotatable=0;points=[[0,0.5],[1,0.5]];portConstraint=eastwest;" vertex="1" parent="cN28s722jj5KMZS00LDS-56">
          <mxGeometry y="192.34073893229169" width="209" height="24" as="geometry" />
        </mxCell>
        <mxCell id="cN28s722jj5KMZS00LDS-65" value="+int Quantity" style="text;strokeColor=none;fillColor=none;align=left;verticalAlign=top;spacingLeft=4;spacingRight=4;overflow=hidden;rotatable=0;points=[[0,0.5],[1,0.5]];portConstraint=eastwest;" vertex="1" parent="cN28s722jj5KMZS00LDS-56">
          <mxGeometry y="216.34073893229169" width="209" height="24" as="geometry" />
        </mxCell>
        <mxCell id="cN28s722jj5KMZS00LDS-66" value="+float UnitPrice" style="text;strokeColor=none;fillColor=none;align=left;verticalAlign=top;spacingLeft=4;spacingRight=4;overflow=hidden;rotatable=0;points=[[0,0.5],[1,0.5]];portConstraint=eastwest;" vertex="1" parent="cN28s722jj5KMZS00LDS-56">
          <mxGeometry y="240.34073893229169" width="209" height="24" as="geometry" />
        </mxCell>
        <mxCell id="cN28s722jj5KMZS00LDS-67" value="+float TotalAmount" style="text;strokeColor=none;fillColor=none;align=left;verticalAlign=top;spacingLeft=4;spacingRight=4;overflow=hidden;rotatable=0;points=[[0,0.5],[1,0.5]];portConstraint=eastwest;" vertex="1" parent="cN28s722jj5KMZS00LDS-56">
          <mxGeometry y="264.3407389322917" width="209" height="24" as="geometry" />
        </mxCell>
        <mxCell id="cN28s722jj5KMZS00LDS-68" value="Note right of Order_ID : PK" style="text;strokeColor=none;fillColor=none;align=left;verticalAlign=top;spacingLeft=4;spacingRight=4;overflow=hidden;rotatable=0;points=[[0,0.5],[1,0.5]];portConstraint=eastwest;" vertex="1" parent="cN28s722jj5KMZS00LDS-56">
          <mxGeometry y="288.3407389322917" width="209" height="24" as="geometry" />
        </mxCell>
        <mxCell id="cN28s722jj5KMZS00LDS-69" style="line;strokeWidth=1;fillColor=none;align=left;verticalAlign=middle;spacingTop=-1;spacingLeft=3;spacingRight=3;rotatable=0;labelPosition=right;points=[];portConstraint=eastwest;strokeColor=inherit;" vertex="1" parent="cN28s722jj5KMZS00LDS-56">
          <mxGeometry y="312.3407389322917" width="209" height="12" as="geometry" />
        </mxCell>
        <mxCell id="cN28s722jj5KMZS00LDS-70" value="Customer" style="swimlane;fontStyle=1;align=center;verticalAlign=top;childLayout=stackLayout;horizontal=1;startSize=24.82105134662829;horizontalStack=0;resizeParent=1;resizeParentMax=0;resizeLast=0;collapsible=0;marginBottom=0;" vertex="1" parent="1">
          <mxGeometry x="1260" y="321" width="236" height="236.82105134662828" as="geometry" />
        </mxCell>
        <mxCell id="cN28s722jj5KMZS00LDS-71" value="+int Customer_ID" style="text;strokeColor=none;fillColor=none;align=left;verticalAlign=top;spacingLeft=4;spacingRight=4;overflow=hidden;rotatable=0;points=[[0,0.5],[1,0.5]];portConstraint=eastwest;" vertex="1" parent="cN28s722jj5KMZS00LDS-70">
          <mxGeometry y="24.82105134662829" width="236" height="25" as="geometry" />
        </mxCell>
        <mxCell id="cN28s722jj5KMZS00LDS-72" value="+String F_Name" style="text;strokeColor=none;fillColor=none;align=left;verticalAlign=top;spacingLeft=4;spacingRight=4;overflow=hidden;rotatable=0;points=[[0,0.5],[1,0.5]];portConstraint=eastwest;" vertex="1" parent="cN28s722jj5KMZS00LDS-70">
          <mxGeometry y="49.821051346628295" width="236" height="25" as="geometry" />
        </mxCell>
        <mxCell id="cN28s722jj5KMZS00LDS-73" value="+String L_Name" style="text;strokeColor=none;fillColor=none;align=left;verticalAlign=top;spacingLeft=4;spacingRight=4;overflow=hidden;rotatable=0;points=[[0,0.5],[1,0.5]];portConstraint=eastwest;" vertex="1" parent="cN28s722jj5KMZS00LDS-70">
          <mxGeometry y="74.8210513466283" width="236" height="25" as="geometry" />
        </mxCell>
        <mxCell id="cN28s722jj5KMZS00LDS-74" value="+String Role" style="text;strokeColor=none;fillColor=none;align=left;verticalAlign=top;spacingLeft=4;spacingRight=4;overflow=hidden;rotatable=0;points=[[0,0.5],[1,0.5]];portConstraint=eastwest;" vertex="1" parent="cN28s722jj5KMZS00LDS-70">
          <mxGeometry y="99.8210513466283" width="236" height="25" as="geometry" />
        </mxCell>
        <mxCell id="cN28s722jj5KMZS00LDS-75" value="+String Phone_No" style="text;strokeColor=none;fillColor=none;align=left;verticalAlign=top;spacingLeft=4;spacingRight=4;overflow=hidden;rotatable=0;points=[[0,0.5],[1,0.5]];portConstraint=eastwest;" vertex="1" parent="cN28s722jj5KMZS00LDS-70">
          <mxGeometry y="124.8210513466283" width="236" height="25" as="geometry" />
        </mxCell>
        <mxCell id="cN28s722jj5KMZS00LDS-76" value="+String Gmail" style="text;strokeColor=none;fillColor=none;align=left;verticalAlign=top;spacingLeft=4;spacingRight=4;overflow=hidden;rotatable=0;points=[[0,0.5],[1,0.5]];portConstraint=eastwest;" vertex="1" parent="cN28s722jj5KMZS00LDS-70">
          <mxGeometry y="149.82105134662828" width="236" height="25" as="geometry" />
        </mxCell>
        <mxCell id="cN28s722jj5KMZS00LDS-77" value="+String Password" style="text;strokeColor=none;fillColor=none;align=left;verticalAlign=top;spacingLeft=4;spacingRight=4;overflow=hidden;rotatable=0;points=[[0,0.5],[1,0.5]];portConstraint=eastwest;" vertex="1" parent="cN28s722jj5KMZS00LDS-70">
          <mxGeometry y="174.82105134662828" width="236" height="25" as="geometry" />
        </mxCell>
        <mxCell id="cN28s722jj5KMZS00LDS-78" value="Note right of Customer_ID : PK" style="text;strokeColor=none;fillColor=none;align=left;verticalAlign=top;spacingLeft=4;spacingRight=4;overflow=hidden;rotatable=0;points=[[0,0.5],[1,0.5]];portConstraint=eastwest;" vertex="1" parent="cN28s722jj5KMZS00LDS-70">
          <mxGeometry y="199.82105134662828" width="236" height="25" as="geometry" />
        </mxCell>
        <mxCell id="cN28s722jj5KMZS00LDS-79" style="line;strokeWidth=1;fillColor=none;align=left;verticalAlign=middle;spacingTop=-1;spacingLeft=3;spacingRight=3;rotatable=0;labelPosition=right;points=[];portConstraint=eastwest;strokeColor=inherit;" vertex="1" parent="cN28s722jj5KMZS00LDS-70">
          <mxGeometry y="224.82105134662828" width="236" height="12" as="geometry" />
        </mxCell>
        <mxCell id="cN28s722jj5KMZS00LDS-80" value="Cart" style="swimlane;fontStyle=1;align=center;verticalAlign=top;childLayout=stackLayout;horizontal=1;startSize=25.011765423943014;horizontalStack=0;resizeParent=1;resizeParentMax=0;resizeLast=0;collapsible=0;marginBottom=0;" vertex="1" parent="1">
          <mxGeometry x="298" y="750" width="228" height="213.01176542394302" as="geometry" />
        </mxCell>
        <mxCell id="cN28s722jj5KMZS00LDS-81" value="+int CustomerID" style="text;strokeColor=none;fillColor=none;align=left;verticalAlign=top;spacingLeft=4;spacingRight=4;overflow=hidden;rotatable=0;points=[[0,0.5],[1,0.5]];portConstraint=eastwest;" vertex="1" parent="cN28s722jj5KMZS00LDS-80">
          <mxGeometry y="25.011765423943014" width="228" height="25" as="geometry" />
        </mxCell>
        <mxCell id="cN28s722jj5KMZS00LDS-82" value="+int ProductID" style="text;strokeColor=none;fillColor=none;align=left;verticalAlign=top;spacingLeft=4;spacingRight=4;overflow=hidden;rotatable=0;points=[[0,0.5],[1,0.5]];portConstraint=eastwest;" vertex="1" parent="cN28s722jj5KMZS00LDS-80">
          <mxGeometry y="50.01176542394302" width="228" height="25" as="geometry" />
        </mxCell>
        <mxCell id="cN28s722jj5KMZS00LDS-83" value="+int Quantity" style="text;strokeColor=none;fillColor=none;align=left;verticalAlign=top;spacingLeft=4;spacingRight=4;overflow=hidden;rotatable=0;points=[[0,0.5],[1,0.5]];portConstraint=eastwest;" vertex="1" parent="cN28s722jj5KMZS00LDS-80">
          <mxGeometry y="75.01176542394302" width="228" height="25" as="geometry" />
        </mxCell>
        <mxCell id="cN28s722jj5KMZS00LDS-84" value="+float UnitPrice" style="text;strokeColor=none;fillColor=none;align=left;verticalAlign=top;spacingLeft=4;spacingRight=4;overflow=hidden;rotatable=0;points=[[0,0.5],[1,0.5]];portConstraint=eastwest;" vertex="1" parent="cN28s722jj5KMZS00LDS-80">
          <mxGeometry y="100.01176542394302" width="228" height="25" as="geometry" />
        </mxCell>
        <mxCell id="cN28s722jj5KMZS00LDS-85" value="+float TotalCost" style="text;strokeColor=none;fillColor=none;align=left;verticalAlign=top;spacingLeft=4;spacingRight=4;overflow=hidden;rotatable=0;points=[[0,0.5],[1,0.5]];portConstraint=eastwest;" vertex="1" parent="cN28s722jj5KMZS00LDS-80">
          <mxGeometry y="125.01176542394302" width="228" height="25" as="geometry" />
        </mxCell>
        <mxCell id="cN28s722jj5KMZS00LDS-86" value="Note right of CustomerID : PK" style="text;strokeColor=none;fillColor=none;align=left;verticalAlign=top;spacingLeft=4;spacingRight=4;overflow=hidden;rotatable=0;points=[[0,0.5],[1,0.5]];portConstraint=eastwest;" vertex="1" parent="cN28s722jj5KMZS00LDS-80">
          <mxGeometry y="150.01176542394302" width="228" height="25" as="geometry" />
        </mxCell>
        <mxCell id="cN28s722jj5KMZS00LDS-87" value="Note right of ProductID : PK" style="text;strokeColor=none;fillColor=none;align=left;verticalAlign=top;spacingLeft=4;spacingRight=4;overflow=hidden;rotatable=0;points=[[0,0.5],[1,0.5]];portConstraint=eastwest;" vertex="1" parent="cN28s722jj5KMZS00LDS-80">
          <mxGeometry y="175.01176542394302" width="228" height="25" as="geometry" />
        </mxCell>
        <mxCell id="cN28s722jj5KMZS00LDS-88" style="line;strokeWidth=1;fillColor=none;align=left;verticalAlign=middle;spacingTop=-1;spacingLeft=3;spacingRight=3;rotatable=0;labelPosition=right;points=[];portConstraint=eastwest;strokeColor=inherit;" vertex="1" parent="cN28s722jj5KMZS00LDS-80">
          <mxGeometry y="200.01176542394302" width="228" height="13" as="geometry" />
        </mxCell>
        <mxCell id="cN28s722jj5KMZS00LDS-89" value="Address" style="swimlane;fontStyle=1;align=center;verticalAlign=top;childLayout=stackLayout;horizontal=1;startSize=25.25333251953125;horizontalStack=0;resizeParent=1;resizeParentMax=0;resizeLast=0;collapsible=0;marginBottom=0;" vertex="1" parent="1">
          <mxGeometry x="1289" y="762" width="224" height="188.25333251953126" as="geometry" />
        </mxCell>
        <mxCell id="cN28s722jj5KMZS00LDS-90" value="+String PostalCode" style="text;strokeColor=none;fillColor=none;align=left;verticalAlign=top;spacingLeft=4;spacingRight=4;overflow=hidden;rotatable=0;points=[[0,0.5],[1,0.5]];portConstraint=eastwest;" vertex="1" parent="cN28s722jj5KMZS00LDS-89">
          <mxGeometry y="25.25333251953125" width="224" height="25" as="geometry" />
        </mxCell>
        <mxCell id="cN28s722jj5KMZS00LDS-91" value="+String Street" style="text;strokeColor=none;fillColor=none;align=left;verticalAlign=top;spacingLeft=4;spacingRight=4;overflow=hidden;rotatable=0;points=[[0,0.5],[1,0.5]];portConstraint=eastwest;" vertex="1" parent="cN28s722jj5KMZS00LDS-89">
          <mxGeometry y="50.25333251953125" width="224" height="25" as="geometry" />
        </mxCell>
        <mxCell id="cN28s722jj5KMZS00LDS-92" value="+String Number" style="text;strokeColor=none;fillColor=none;align=left;verticalAlign=top;spacingLeft=4;spacingRight=4;overflow=hidden;rotatable=0;points=[[0,0.5],[1,0.5]];portConstraint=eastwest;" vertex="1" parent="cN28s722jj5KMZS00LDS-89">
          <mxGeometry y="75.25333251953126" width="224" height="25" as="geometry" />
        </mxCell>
        <mxCell id="cN28s722jj5KMZS00LDS-93" value="+String City" style="text;strokeColor=none;fillColor=none;align=left;verticalAlign=top;spacingLeft=4;spacingRight=4;overflow=hidden;rotatable=0;points=[[0,0.5],[1,0.5]];portConstraint=eastwest;" vertex="1" parent="cN28s722jj5KMZS00LDS-89">
          <mxGeometry y="100.25333251953126" width="224" height="25" as="geometry" />
        </mxCell>
        <mxCell id="cN28s722jj5KMZS00LDS-94" value="+String District" style="text;strokeColor=none;fillColor=none;align=left;verticalAlign=top;spacingLeft=4;spacingRight=4;overflow=hidden;rotatable=0;points=[[0,0.5],[1,0.5]];portConstraint=eastwest;" vertex="1" parent="cN28s722jj5KMZS00LDS-89">
          <mxGeometry y="125.25333251953126" width="224" height="25" as="geometry" />
        </mxCell>
        <mxCell id="cN28s722jj5KMZS00LDS-95" value="Note right of PostalCode : PK" style="text;strokeColor=none;fillColor=none;align=left;verticalAlign=top;spacingLeft=4;spacingRight=4;overflow=hidden;rotatable=0;points=[[0,0.5],[1,0.5]];portConstraint=eastwest;" vertex="1" parent="cN28s722jj5KMZS00LDS-89">
          <mxGeometry y="150.25333251953126" width="224" height="25" as="geometry" />
        </mxCell>
        <mxCell id="cN28s722jj5KMZS00LDS-96" style="line;strokeWidth=1;fillColor=none;align=left;verticalAlign=middle;spacingTop=-1;spacingLeft=3;spacingRight=3;rotatable=0;labelPosition=right;points=[];portConstraint=eastwest;strokeColor=inherit;" vertex="1" parent="cN28s722jj5KMZS00LDS-89">
          <mxGeometry y="175.25333251953126" width="224" height="13" as="geometry" />
        </mxCell>
        <mxCell id="cN28s722jj5KMZS00LDS-97" value="Rating" style="swimlane;fontStyle=1;align=center;verticalAlign=top;childLayout=stackLayout;horizontal=1;startSize=26;horizontalStack=0;resizeParent=1;resizeParentMax=0;resizeLast=0;collapsible=0;marginBottom=0;" vertex="1" parent="1">
          <mxGeometry x="912" y="785" width="205" height="143" as="geometry" />
        </mxCell>
        <mxCell id="cN28s722jj5KMZS00LDS-98" value="+int RatingID" style="text;strokeColor=none;fillColor=none;align=left;verticalAlign=top;spacingLeft=4;spacingRight=4;overflow=hidden;rotatable=0;points=[[0,0.5],[1,0.5]];portConstraint=eastwest;" vertex="1" parent="cN28s722jj5KMZS00LDS-97">
          <mxGeometry y="26" width="205" height="26" as="geometry" />
        </mxCell>
        <mxCell id="cN28s722jj5KMZS00LDS-99" value="+float Rating" style="text;strokeColor=none;fillColor=none;align=left;verticalAlign=top;spacingLeft=4;spacingRight=4;overflow=hidden;rotatable=0;points=[[0,0.5],[1,0.5]];portConstraint=eastwest;" vertex="1" parent="cN28s722jj5KMZS00LDS-97">
          <mxGeometry y="52" width="205" height="26" as="geometry" />
        </mxCell>
        <mxCell id="cN28s722jj5KMZS00LDS-100" value="+String Comment" style="text;strokeColor=none;fillColor=none;align=left;verticalAlign=top;spacingLeft=4;spacingRight=4;overflow=hidden;rotatable=0;points=[[0,0.5],[1,0.5]];portConstraint=eastwest;" vertex="1" parent="cN28s722jj5KMZS00LDS-97">
          <mxGeometry y="78" width="205" height="26" as="geometry" />
        </mxCell>
        <mxCell id="cN28s722jj5KMZS00LDS-101" value="Note right of RatingID : PK" style="text;strokeColor=none;fillColor=none;align=left;verticalAlign=top;spacingLeft=4;spacingRight=4;overflow=hidden;rotatable=0;points=[[0,0.5],[1,0.5]];portConstraint=eastwest;" vertex="1" parent="cN28s722jj5KMZS00LDS-97">
          <mxGeometry y="104" width="205" height="26" as="geometry" />
        </mxCell>
        <mxCell id="cN28s722jj5KMZS00LDS-102" style="line;strokeWidth=1;fillColor=none;align=left;verticalAlign=middle;spacingTop=-1;spacingLeft=3;spacingRight=3;rotatable=0;labelPosition=right;points=[];portConstraint=eastwest;strokeColor=inherit;" vertex="1" parent="cN28s722jj5KMZS00LDS-97">
          <mxGeometry y="130" width="205" height="13" as="geometry" />
        </mxCell>
        <mxCell id="cN28s722jj5KMZS00LDS-103" value="Notification" style="swimlane;fontStyle=1;align=center;verticalAlign=top;childLayout=stackLayout;horizontal=1;startSize=26.62222120496962;horizontalStack=0;resizeParent=1;resizeParentMax=0;resizeLast=0;collapsible=0;marginBottom=0;" vertex="1" parent="1">
          <mxGeometry x="1563" y="797" width="245" height="120.62222120496962" as="geometry" />
        </mxCell>
        <mxCell id="cN28s722jj5KMZS00LDS-104" value="+int NotificationID" style="text;strokeColor=none;fillColor=none;align=left;verticalAlign=top;spacingLeft=4;spacingRight=4;overflow=hidden;rotatable=0;points=[[0,0.5],[1,0.5]];portConstraint=eastwest;" vertex="1" parent="cN28s722jj5KMZS00LDS-103">
          <mxGeometry y="26.62222120496962" width="245" height="27" as="geometry" />
        </mxCell>
        <mxCell id="cN28s722jj5KMZS00LDS-105" value="+String NotificationDetails" style="text;strokeColor=none;fillColor=none;align=left;verticalAlign=top;spacingLeft=4;spacingRight=4;overflow=hidden;rotatable=0;points=[[0,0.5],[1,0.5]];portConstraint=eastwest;" vertex="1" parent="cN28s722jj5KMZS00LDS-103">
          <mxGeometry y="53.62222120496962" width="245" height="27" as="geometry" />
        </mxCell>
        <mxCell id="cN28s722jj5KMZS00LDS-106" value="Note right of NotificationID : PK" style="text;strokeColor=none;fillColor=none;align=left;verticalAlign=top;spacingLeft=4;spacingRight=4;overflow=hidden;rotatable=0;points=[[0,0.5],[1,0.5]];portConstraint=eastwest;" vertex="1" parent="cN28s722jj5KMZS00LDS-103">
          <mxGeometry y="80.62222120496962" width="245" height="27" as="geometry" />
        </mxCell>
        <mxCell id="cN28s722jj5KMZS00LDS-107" style="line;strokeWidth=1;fillColor=none;align=left;verticalAlign=middle;spacingTop=-1;spacingLeft=3;spacingRight=3;rotatable=0;labelPosition=right;points=[];portConstraint=eastwest;strokeColor=inherit;" vertex="1" parent="cN28s722jj5KMZS00LDS-103">
          <mxGeometry y="107.62222120496962" width="245" height="13" as="geometry" />
        </mxCell>
        <mxCell id="cN28s722jj5KMZS00LDS-108" value="Payment" style="swimlane;fontStyle=1;align=center;verticalAlign=top;childLayout=stackLayout;horizontal=1;startSize=25.011765423943014;horizontalStack=0;resizeParent=1;resizeParentMax=0;resizeLast=0;collapsible=0;marginBottom=0;" vertex="1" parent="1">
          <mxGeometry x="1984" y="1098" width="230" height="213.01176542394302" as="geometry" />
        </mxCell>
        <mxCell id="cN28s722jj5KMZS00LDS-109" value="+int Payment_ID" style="text;strokeColor=none;fillColor=none;align=left;verticalAlign=top;spacingLeft=4;spacingRight=4;overflow=hidden;rotatable=0;points=[[0,0.5],[1,0.5]];portConstraint=eastwest;" vertex="1" parent="cN28s722jj5KMZS00LDS-108">
          <mxGeometry y="25.011765423943014" width="230" height="25" as="geometry" />
        </mxCell>
        <mxCell id="cN28s722jj5KMZS00LDS-110" value="+Date DateOfPayment" style="text;strokeColor=none;fillColor=none;align=left;verticalAlign=top;spacingLeft=4;spacingRight=4;overflow=hidden;rotatable=0;points=[[0,0.5],[1,0.5]];portConstraint=eastwest;" vertex="1" parent="cN28s722jj5KMZS00LDS-108">
          <mxGeometry y="50.01176542394302" width="230" height="25" as="geometry" />
        </mxCell>
        <mxCell id="cN28s722jj5KMZS00LDS-111" value="+Time TimeOfPayment" style="text;strokeColor=none;fillColor=none;align=left;verticalAlign=top;spacingLeft=4;spacingRight=4;overflow=hidden;rotatable=0;points=[[0,0.5],[1,0.5]];portConstraint=eastwest;" vertex="1" parent="cN28s722jj5KMZS00LDS-108">
          <mxGeometry y="75.01176542394302" width="230" height="25" as="geometry" />
        </mxCell>
        <mxCell id="cN28s722jj5KMZS00LDS-112" value="+float Amount" style="text;strokeColor=none;fillColor=none;align=left;verticalAlign=top;spacingLeft=4;spacingRight=4;overflow=hidden;rotatable=0;points=[[0,0.5],[1,0.5]];portConstraint=eastwest;" vertex="1" parent="cN28s722jj5KMZS00LDS-108">
          <mxGeometry y="100.01176542394302" width="230" height="25" as="geometry" />
        </mxCell>
        <mxCell id="cN28s722jj5KMZS00LDS-113" value="+String PaymentMode" style="text;strokeColor=none;fillColor=none;align=left;verticalAlign=top;spacingLeft=4;spacingRight=4;overflow=hidden;rotatable=0;points=[[0,0.5],[1,0.5]];portConstraint=eastwest;" vertex="1" parent="cN28s722jj5KMZS00LDS-108">
          <mxGeometry y="125.01176542394302" width="230" height="25" as="geometry" />
        </mxCell>
        <mxCell id="cN28s722jj5KMZS00LDS-114" value="+String PaymentStatus" style="text;strokeColor=none;fillColor=none;align=left;verticalAlign=top;spacingLeft=4;spacingRight=4;overflow=hidden;rotatable=0;points=[[0,0.5],[1,0.5]];portConstraint=eastwest;" vertex="1" parent="cN28s722jj5KMZS00LDS-108">
          <mxGeometry y="150.01176542394302" width="230" height="25" as="geometry" />
        </mxCell>
        <mxCell id="cN28s722jj5KMZS00LDS-115" value="Note right of Payment_ID : PK" style="text;strokeColor=none;fillColor=none;align=left;verticalAlign=top;spacingLeft=4;spacingRight=4;overflow=hidden;rotatable=0;points=[[0,0.5],[1,0.5]];portConstraint=eastwest;" vertex="1" parent="cN28s722jj5KMZS00LDS-108">
          <mxGeometry y="175.01176542394302" width="230" height="25" as="geometry" />
        </mxCell>
        <mxCell id="cN28s722jj5KMZS00LDS-116" style="line;strokeWidth=1;fillColor=none;align=left;verticalAlign=middle;spacingTop=-1;spacingLeft=3;spacingRight=3;rotatable=0;labelPosition=right;points=[];portConstraint=eastwest;strokeColor=inherit;" vertex="1" parent="cN28s722jj5KMZS00LDS-108">
          <mxGeometry y="200.01176542394302" width="230" height="13" as="geometry" />
        </mxCell>
        <mxCell id="cN28s722jj5KMZS00LDS-117" value="Favourite" style="swimlane;fontStyle=1;align=center;verticalAlign=top;childLayout=stackLayout;horizontal=1;startSize=25.56923029972957;horizontalStack=0;resizeParent=1;resizeParentMax=0;resizeLast=0;collapsible=0;marginBottom=0;" vertex="1" parent="1">
          <mxGeometry x="1706" y="1121" width="228" height="168.56923029972955" as="geometry" />
        </mxCell>
        <mxCell id="cN28s722jj5KMZS00LDS-118" value="+int ProductID" style="text;strokeColor=none;fillColor=none;align=left;verticalAlign=top;spacingLeft=4;spacingRight=4;overflow=hidden;rotatable=0;points=[[0,0.5],[1,0.5]];portConstraint=eastwest;" vertex="1" parent="cN28s722jj5KMZS00LDS-117">
          <mxGeometry y="25.56923029972957" width="228" height="26" as="geometry" />
        </mxCell>
        <mxCell id="cN28s722jj5KMZS00LDS-119" value="+int CustomerID" style="text;strokeColor=none;fillColor=none;align=left;verticalAlign=top;spacingLeft=4;spacingRight=4;overflow=hidden;rotatable=0;points=[[0,0.5],[1,0.5]];portConstraint=eastwest;" vertex="1" parent="cN28s722jj5KMZS00LDS-117">
          <mxGeometry y="51.56923029972957" width="228" height="26" as="geometry" />
        </mxCell>
        <mxCell id="cN28s722jj5KMZS00LDS-120" value="+String Status" style="text;strokeColor=none;fillColor=none;align=left;verticalAlign=top;spacingLeft=4;spacingRight=4;overflow=hidden;rotatable=0;points=[[0,0.5],[1,0.5]];portConstraint=eastwest;" vertex="1" parent="cN28s722jj5KMZS00LDS-117">
          <mxGeometry y="77.56923029972957" width="228" height="26" as="geometry" />
        </mxCell>
        <mxCell id="cN28s722jj5KMZS00LDS-121" value="Note right of ProductID : PK" style="text;strokeColor=none;fillColor=none;align=left;verticalAlign=top;spacingLeft=4;spacingRight=4;overflow=hidden;rotatable=0;points=[[0,0.5],[1,0.5]];portConstraint=eastwest;" vertex="1" parent="cN28s722jj5KMZS00LDS-117">
          <mxGeometry y="103.56923029972957" width="228" height="26" as="geometry" />
        </mxCell>
        <mxCell id="cN28s722jj5KMZS00LDS-122" value="Note right of CustomerID : PK" style="text;strokeColor=none;fillColor=none;align=left;verticalAlign=top;spacingLeft=4;spacingRight=4;overflow=hidden;rotatable=0;points=[[0,0.5],[1,0.5]];portConstraint=eastwest;" vertex="1" parent="cN28s722jj5KMZS00LDS-117">
          <mxGeometry y="129.56923029972955" width="228" height="26" as="geometry" />
        </mxCell>
        <mxCell id="cN28s722jj5KMZS00LDS-123" style="line;strokeWidth=1;fillColor=none;align=left;verticalAlign=middle;spacingTop=-1;spacingLeft=3;spacingRight=3;rotatable=0;labelPosition=right;points=[];portConstraint=eastwest;strokeColor=inherit;" vertex="1" parent="cN28s722jj5KMZS00LDS-117">
          <mxGeometry y="155.56923029972955" width="228" height="13" as="geometry" />
        </mxCell>
        <mxCell id="cN28s722jj5KMZS00LDS-124" value="belongs_to" style="curved=1;startArrow=none;endArrow=open;endSize=12;exitX=0.5;exitY=1;entryX=0.11;entryY=0;rounded=0;" edge="1" parent="1" source="cN28s722jj5KMZS00LDS-2" target="cN28s722jj5KMZS00LDS-8">
          <mxGeometry relative="1" as="geometry">
            <Array as="points">
              <mxPoint x="547" y="229" />
            </Array>
          </mxGeometry>
        </mxCell>
        <mxCell id="cN28s722jj5KMZS00LDS-125" value="1" style="edgeLabel;resizable=0;labelBackgroundColor=none;fontSize=12;align=right;verticalAlign=top;" vertex="1" parent="cN28s722jj5KMZS00LDS-124">
          <mxGeometry x="-1" relative="1" as="geometry" />
        </mxCell>
        <mxCell id="cN28s722jj5KMZS00LDS-126" value="M" style="edgeLabel;resizable=0;labelBackgroundColor=none;fontSize=12;align=left;verticalAlign=bottom;" vertex="1" parent="cN28s722jj5KMZS00LDS-124">
          <mxGeometry x="1" relative="1" as="geometry" />
        </mxCell>
        <mxCell id="cN28s722jj5KMZS00LDS-127" value="has" style="curved=1;startArrow=none;endArrow=open;endSize=12;exitX=0;exitY=0.63;entryX=0.5;entryY=0;rounded=0;" edge="1" parent="1" source="cN28s722jj5KMZS00LDS-8" target="cN28s722jj5KMZS00LDS-23">
          <mxGeometry relative="1" as="geometry">
            <Array as="points">
              <mxPoint x="134" y="658" />
            </Array>
          </mxGeometry>
        </mxCell>
        <mxCell id="cN28s722jj5KMZS00LDS-128" value="1" style="edgeLabel;resizable=0;labelBackgroundColor=none;fontSize=12;align=right;verticalAlign=top;" vertex="1" parent="cN28s722jj5KMZS00LDS-127">
          <mxGeometry x="-1" relative="1" as="geometry" />
        </mxCell>
        <mxCell id="cN28s722jj5KMZS00LDS-129" value="1" style="edgeLabel;resizable=0;labelBackgroundColor=none;fontSize=12;align=left;verticalAlign=bottom;" vertex="1" parent="cN28s722jj5KMZS00LDS-127">
          <mxGeometry x="1" relative="1" as="geometry" />
        </mxCell>
        <mxCell id="cN28s722jj5KMZS00LDS-130" value="gives" style="curved=1;startArrow=none;endArrow=open;endSize=12;exitX=0.37;exitY=1;entryX=0;entryY=0.16;rounded=0;" edge="1" parent="1" source="cN28s722jj5KMZS00LDS-8" target="cN28s722jj5KMZS00LDS-97">
          <mxGeometry relative="1" as="geometry">
            <Array as="points">
              <mxPoint x="615" y="658" />
            </Array>
          </mxGeometry>
        </mxCell>
        <mxCell id="cN28s722jj5KMZS00LDS-131" value="M" style="edgeLabel;resizable=0;labelBackgroundColor=none;fontSize=12;align=left;verticalAlign=top;" vertex="1" parent="cN28s722jj5KMZS00LDS-130">
          <mxGeometry x="-1" relative="1" as="geometry" />
        </mxCell>
        <mxCell id="cN28s722jj5KMZS00LDS-132" value="M" style="edgeLabel;resizable=0;labelBackgroundColor=none;fontSize=12;align=right;verticalAlign=bottom;" vertex="1" parent="cN28s722jj5KMZS00LDS-130">
          <mxGeometry x="1" relative="1" as="geometry" />
        </mxCell>
        <mxCell id="cN28s722jj5KMZS00LDS-133" value="part_of" style="curved=1;startArrow=none;endArrow=open;endSize=12;exitX=0.63;exitY=1;entryX=1;entryY=0.11;rounded=0;" edge="1" parent="1" source="cN28s722jj5KMZS00LDS-8" target="cN28s722jj5KMZS00LDS-80">
          <mxGeometry relative="1" as="geometry">
            <Array as="points">
              <mxPoint x="680" y="658" />
            </Array>
          </mxGeometry>
        </mxCell>
        <mxCell id="cN28s722jj5KMZS00LDS-134" value="M" style="edgeLabel;resizable=0;labelBackgroundColor=none;fontSize=12;align=right;verticalAlign=top;" vertex="1" parent="cN28s722jj5KMZS00LDS-133">
          <mxGeometry x="-1" relative="1" as="geometry" />
        </mxCell>
        <mxCell id="cN28s722jj5KMZS00LDS-135" value="N" style="edgeLabel;resizable=0;labelBackgroundColor=none;fontSize=12;align=left;verticalAlign=bottom;" vertex="1" parent="cN28s722jj5KMZS00LDS-133">
          <mxGeometry x="1" relative="1" as="geometry" />
        </mxCell>
        <mxCell id="cN28s722jj5KMZS00LDS-136" value="adds" style="curved=1;startArrow=none;endArrow=open;endSize=12;exitX=0.5;exitY=1;entryX=1;entryY=0;rounded=0;" edge="1" parent="1" source="cN28s722jj5KMZS00LDS-30" target="cN28s722jj5KMZS00LDS-49">
          <mxGeometry relative="1" as="geometry">
            <Array as="points">
              <mxPoint x="963" y="658" />
            </Array>
          </mxGeometry>
        </mxCell>
        <mxCell id="cN28s722jj5KMZS00LDS-137" value="M" style="edgeLabel;resizable=0;labelBackgroundColor=none;fontSize=12;align=right;verticalAlign=top;" vertex="1" parent="cN28s722jj5KMZS00LDS-136">
          <mxGeometry x="-1" relative="1" as="geometry" />
        </mxCell>
        <mxCell id="cN28s722jj5KMZS00LDS-138" value="N" style="edgeLabel;resizable=0;labelBackgroundColor=none;fontSize=12;align=left;verticalAlign=bottom;" vertex="1" parent="cN28s722jj5KMZS00LDS-136">
          <mxGeometry x="1" relative="1" as="geometry" />
        </mxCell>
        <mxCell id="cN28s722jj5KMZS00LDS-139" value="adds" style="curved=1;startArrow=none;endArrow=open;endSize=12;exitX=0.5;exitY=1;entryX=0.5;entryY=0;rounded=0;" edge="1" parent="1" source="cN28s722jj5KMZS00LDS-42" target="cN28s722jj5KMZS00LDS-30">
          <mxGeometry relative="1" as="geometry">
            <Array as="points" />
          </mxGeometry>
        </mxCell>
        <mxCell id="cN28s722jj5KMZS00LDS-140" value="1" style="edgeLabel;resizable=0;labelBackgroundColor=none;fontSize=12;align=right;verticalAlign=top;" vertex="1" parent="cN28s722jj5KMZS00LDS-139">
          <mxGeometry x="-1" relative="1" as="geometry" />
        </mxCell>
        <mxCell id="cN28s722jj5KMZS00LDS-141" value="M" style="edgeLabel;resizable=0;labelBackgroundColor=none;fontSize=12;align=left;verticalAlign=bottom;" vertex="1" parent="cN28s722jj5KMZS00LDS-139">
          <mxGeometry x="1" relative="1" as="geometry" />
        </mxCell>
        <mxCell id="cN28s722jj5KMZS00LDS-142" value="adds" style="curved=1;startArrow=none;endArrow=open;endSize=12;exitX=0.74;exitY=1;entryX=1;entryY=0.33;rounded=0;" edge="1" parent="1" source="cN28s722jj5KMZS00LDS-42" target="cN28s722jj5KMZS00LDS-8">
          <mxGeometry relative="1" as="geometry">
            <Array as="points">
              <mxPoint x="1016" y="229" />
            </Array>
          </mxGeometry>
        </mxCell>
        <mxCell id="cN28s722jj5KMZS00LDS-143" value="1" style="edgeLabel;resizable=0;labelBackgroundColor=none;fontSize=12;align=right;verticalAlign=top;" vertex="1" parent="cN28s722jj5KMZS00LDS-142">
          <mxGeometry x="-1" relative="1" as="geometry" />
        </mxCell>
        <mxCell id="cN28s722jj5KMZS00LDS-144" value="M" style="edgeLabel;resizable=0;labelBackgroundColor=none;fontSize=12;align=left;verticalAlign=bottom;" vertex="1" parent="cN28s722jj5KMZS00LDS-142">
          <mxGeometry x="1" relative="1" as="geometry" />
        </mxCell>
        <mxCell id="cN28s722jj5KMZS00LDS-145" value="contains" style="curved=1;startArrow=none;endArrow=open;endSize=12;exitX=0;exitY=0.94;entryX=0.5;entryY=0;rounded=0;" edge="1" parent="1" source="cN28s722jj5KMZS00LDS-56" target="cN28s722jj5KMZS00LDS-117">
          <mxGeometry relative="1" as="geometry">
            <Array as="points">
              <mxPoint x="1820" y="1064" />
            </Array>
          </mxGeometry>
        </mxCell>
        <mxCell id="cN28s722jj5KMZS00LDS-146" value="M" style="edgeLabel;resizable=0;labelBackgroundColor=none;fontSize=12;align=right;verticalAlign=top;" vertex="1" parent="cN28s722jj5KMZS00LDS-145">
          <mxGeometry x="-1" relative="1" as="geometry" />
        </mxCell>
        <mxCell id="cN28s722jj5KMZS00LDS-147" value="M" style="edgeLabel;resizable=0;labelBackgroundColor=none;fontSize=12;align=left;verticalAlign=bottom;" vertex="1" parent="cN28s722jj5KMZS00LDS-145">
          <mxGeometry x="1" relative="1" as="geometry" />
        </mxCell>
        <mxCell id="cN28s722jj5KMZS00LDS-148" value="has" style="curved=1;startArrow=none;endArrow=open;endSize=12;exitX=0;exitY=0.92;entryX=1;entryY=0.35;rounded=0;" edge="1" parent="1" source="cN28s722jj5KMZS00LDS-70" target="cN28s722jj5KMZS00LDS-80">
          <mxGeometry relative="1" as="geometry">
            <Array as="points">
              <mxPoint x="1128" y="658" />
            </Array>
          </mxGeometry>
        </mxCell>
        <mxCell id="cN28s722jj5KMZS00LDS-149" value="1" style="edgeLabel;resizable=0;labelBackgroundColor=none;fontSize=12;align=right;verticalAlign=top;" vertex="1" parent="cN28s722jj5KMZS00LDS-148">
          <mxGeometry x="-1" relative="1" as="geometry" />
        </mxCell>
        <mxCell id="cN28s722jj5KMZS00LDS-150" value="1" style="edgeLabel;resizable=0;labelBackgroundColor=none;fontSize=12;align=left;verticalAlign=bottom;" vertex="1" parent="cN28s722jj5KMZS00LDS-148">
          <mxGeometry x="1" relative="1" as="geometry" />
        </mxCell>
        <mxCell id="cN28s722jj5KMZS00LDS-151" value="has" style="curved=1;startArrow=none;endArrow=open;endSize=12;exitX=0.01;exitY=1;entryX=0;entryY=0;rounded=0;" edge="1" parent="1" source="cN28s722jj5KMZS00LDS-70" target="cN28s722jj5KMZS00LDS-89">
          <mxGeometry relative="1" as="geometry">
            <Array as="points">
              <mxPoint x="1173" y="658" />
            </Array>
          </mxGeometry>
        </mxCell>
        <mxCell id="cN28s722jj5KMZS00LDS-152" value="1" style="edgeLabel;resizable=0;labelBackgroundColor=none;fontSize=12;align=right;verticalAlign=top;" vertex="1" parent="cN28s722jj5KMZS00LDS-151">
          <mxGeometry x="-1" relative="1" as="geometry" />
        </mxCell>
        <mxCell id="cN28s722jj5KMZS00LDS-153" value="M" style="edgeLabel;resizable=0;labelBackgroundColor=none;fontSize=12;align=left;verticalAlign=bottom;" vertex="1" parent="cN28s722jj5KMZS00LDS-151">
          <mxGeometry x="1" relative="1" as="geometry" />
        </mxCell>
        <mxCell id="cN28s722jj5KMZS00LDS-154" value="adds" style="curved=1;startArrow=none;endArrow=open;endSize=12;exitX=0.46;exitY=1;entryX=1;entryY=0.1;rounded=0;" edge="1" parent="1" source="cN28s722jj5KMZS00LDS-70" target="cN28s722jj5KMZS00LDS-97">
          <mxGeometry relative="1" as="geometry">
            <Array as="points">
              <mxPoint x="1361" y="658" />
            </Array>
          </mxGeometry>
        </mxCell>
        <mxCell id="cN28s722jj5KMZS00LDS-155" value="1" style="edgeLabel;resizable=0;labelBackgroundColor=none;fontSize=12;align=right;verticalAlign=top;" vertex="1" parent="cN28s722jj5KMZS00LDS-154">
          <mxGeometry x="-1" relative="1" as="geometry" />
        </mxCell>
        <mxCell id="cN28s722jj5KMZS00LDS-156" value="M" style="edgeLabel;resizable=0;labelBackgroundColor=none;fontSize=12;align=left;verticalAlign=bottom;" vertex="1" parent="cN28s722jj5KMZS00LDS-154">
          <mxGeometry x="1" relative="1" as="geometry" />
        </mxCell>
        <mxCell id="cN28s722jj5KMZS00LDS-157" value="shows" style="curved=1;startArrow=none;endArrow=open;endSize=12;exitX=1;exitY=0.84;entryX=0.5;entryY=0;rounded=0;" edge="1" parent="1" source="cN28s722jj5KMZS00LDS-70" target="cN28s722jj5KMZS00LDS-103">
          <mxGeometry relative="1" as="geometry">
            <Array as="points">
              <mxPoint x="1685" y="658" />
            </Array>
          </mxGeometry>
        </mxCell>
        <mxCell id="cN28s722jj5KMZS00LDS-158" value="M" style="edgeLabel;resizable=0;labelBackgroundColor=none;fontSize=12;align=left;verticalAlign=top;" vertex="1" parent="cN28s722jj5KMZS00LDS-157">
          <mxGeometry x="-1" relative="1" as="geometry" />
        </mxCell>
        <mxCell id="cN28s722jj5KMZS00LDS-159" value="N" style="edgeLabel;resizable=0;labelBackgroundColor=none;fontSize=12;align=right;verticalAlign=bottom;" vertex="1" parent="cN28s722jj5KMZS00LDS-157">
          <mxGeometry x="1" relative="1" as="geometry" />
        </mxCell>
        <mxCell id="cN28s722jj5KMZS00LDS-160" value="has" style="curved=1;startArrow=none;endArrow=open;endSize=12;exitX=1;exitY=0.68;entryX=0.5;entryY=0;rounded=0;" edge="1" parent="1" source="cN28s722jj5KMZS00LDS-70" target="cN28s722jj5KMZS00LDS-56">
          <mxGeometry relative="1" as="geometry">
            <Array as="points">
              <mxPoint x="1962" y="658" />
            </Array>
          </mxGeometry>
        </mxCell>
        <mxCell id="cN28s722jj5KMZS00LDS-161" value="1" style="edgeLabel;resizable=0;labelBackgroundColor=none;fontSize=12;align=left;verticalAlign=top;" vertex="1" parent="cN28s722jj5KMZS00LDS-160">
          <mxGeometry x="-1" relative="1" as="geometry" />
        </mxCell>
        <mxCell id="cN28s722jj5KMZS00LDS-162" value="M" style="edgeLabel;resizable=0;labelBackgroundColor=none;fontSize=12;align=right;verticalAlign=bottom;" vertex="1" parent="cN28s722jj5KMZS00LDS-160">
          <mxGeometry x="1" relative="1" as="geometry" />
        </mxCell>
        <mxCell id="cN28s722jj5KMZS00LDS-163" value="has" style="curved=1;startArrow=none;endArrow=open;endSize=12;exitX=1;exitY=0.96;entryX=0.5;entryY=0;rounded=0;" edge="1" parent="1" source="cN28s722jj5KMZS00LDS-56" target="cN28s722jj5KMZS00LDS-108">
          <mxGeometry relative="1" as="geometry">
            <Array as="points">
              <mxPoint x="2099" y="1064" />
            </Array>
          </mxGeometry>
        </mxCell>
        <mxCell id="cN28s722jj5KMZS00LDS-164" value="1" style="edgeLabel;resizable=0;labelBackgroundColor=none;fontSize=12;align=right;verticalAlign=top;" vertex="1" parent="cN28s722jj5KMZS00LDS-163">
          <mxGeometry x="-1" relative="1" as="geometry" />
        </mxCell>
        <mxCell id="cN28s722jj5KMZS00LDS-165" value="1" style="edgeLabel;resizable=0;labelBackgroundColor=none;fontSize=12;align=left;verticalAlign=bottom;" vertex="1" parent="cN28s722jj5KMZS00LDS-163">
          <mxGeometry x="1" relative="1" as="geometry" />
        </mxCell>
        <mxCell id="cN28s722jj5KMZS00LDS-166" value="contains" style="curved=1;startArrow=none;endArrow=open;endSize=12;exitX=1;exitY=0.2;entryX=0.93;entryY=1;rounded=0;" edge="1" parent="1" source="cN28s722jj5KMZS00LDS-80" target="cN28s722jj5KMZS00LDS-8">
          <mxGeometry relative="1" as="geometry">
            <Array as="points">
              <mxPoint x="758" y="658" />
            </Array>
          </mxGeometry>
        </mxCell>
        <mxCell id="cN28s722jj5KMZS00LDS-167" value="M" style="edgeLabel;resizable=0;labelBackgroundColor=none;fontSize=12;align=left;verticalAlign=bottom;" vertex="1" parent="cN28s722jj5KMZS00LDS-166">
          <mxGeometry x="-1" relative="1" as="geometry" />
        </mxCell>
        <mxCell id="cN28s722jj5KMZS00LDS-168" value="N" style="edgeLabel;resizable=0;labelBackgroundColor=none;fontSize=12;align=right;verticalAlign=top;" vertex="1" parent="cN28s722jj5KMZS00LDS-166">
          <mxGeometry x="1" relative="1" as="geometry" />
        </mxCell>
      </root>
    </mxGraphModel>
  </diagram>
</mxfile>
